<svg id="bg" xmlns="http://www.w3.org/2000/svg" xmlns:xlink="http://www.w3.org/1999/xlink" width="567" height="557" viewBox="0 0 567 557">
  <defs>
    <linearGradient id="linear-gradient" x1="0.5" x2="0.5" y2="1" gradientUnits="objectBoundingBox">
      <stop offset="0" stop-color="#1487fd"/>
      <stop offset="1" stop-color="#42a0ff"/>
    </linearGradient>
  </defs>
  <g id="Component_3_1" data-name="Component 3 – 1" transform="translate(10)">
    <g id="Path_5422" data-name="Path 5422" fill="#fff" opacity="0.3">
      <path d="M 278.5 556.5 C 259.6377258300781 556.5 240.7874298095703 554.5997314453125 222.4727783203125 550.8519897460938 C 204.623779296875 547.1995849609375 187.0670013427734 541.7496337890625 170.2899932861328 534.653564453125 C 153.8175048828125 527.686279296875 137.9296417236328 519.0626220703125 123.0679321289063 509.0222778320313 C 108.3472137451172 499.0771484375 94.50450134277344 487.6558532714844 81.92428588867188 475.0757141113281 C 69.34413909912109 462.4955139160156 57.92285537719727 448.6527709960938 47.97771453857422 433.9320678710938 C 37.93735885620117 419.0703430175781 29.3137149810791 403.1824951171875 22.34642791748047 386.7099914550781 C 15.25035667419434 369.9330139160156 9.80042839050293 352.376220703125 6.14799976348877 334.5272216796875 C 2.400285720825195 316.2125854492188 0.5 297.3622741699219 0.5 278.5 C 0.5 259.6377258300781 2.400285720825195 240.7874298095703 6.14799976348877 222.4727783203125 C 9.80042839050293 204.623779296875 15.25035667419434 187.0670013427734 22.34642791748047 170.2899932861328 C 29.3137149810791 153.8175048828125 37.93735885620117 137.9296417236328 47.97771453857422 123.0679321289063 C 57.92285537719727 108.3472137451172 69.34413909912109 94.50450134277344 81.92428588867188 81.92428588867188 C 94.50450134277344 69.34413909912109 108.3472137451172 57.92285537719727 123.0679321289063 47.97771453857422 C 137.9296417236328 37.93735885620117 153.8175048828125 29.3137149810791 170.2899932861328 22.34642791748047 C 187.0670013427734 15.25035667419434 204.623779296875 9.80042839050293 222.4727783203125 6.14799976348877 C 240.7874298095703 2.400285720825195 259.6377258300781 0.5 278.5 0.5 C 297.3622741699219 0.5 316.2125854492188 2.400285720825195 334.5272216796875 6.14799976348877 C 352.376220703125 9.80042839050293 369.9330139160156 15.25035667419434 386.7099914550781 22.34642791748047 C 403.1824951171875 29.3137149810791 419.0703430175781 37.93735885620117 433.9320678710938 47.97771453857422 C 448.6527709960938 57.92285537719727 462.4955139160156 69.34413909912109 475.0757141113281 81.92428588867188 C 487.6558532714844 94.50450134277344 499.0771484375 108.3472137451172 509.0222778320313 123.0679321289063 C 519.0626220703125 137.9296417236328 527.686279296875 153.8175048828125 534.653564453125 170.2899932861328 C 541.7496337890625 187.0670013427734 547.1995849609375 204.623779296875 550.8519897460938 222.4727783203125 C 554.5997314453125 240.7874298095703 556.5 259.6377258300781 556.5 278.5 C 556.5 297.3622741699219 554.5997314453125 316.2125854492188 550.8519897460938 334.5272216796875 C 547.1995849609375 352.376220703125 541.7496337890625 369.9330139160156 534.653564453125 386.7099914550781 C 527.686279296875 403.1824951171875 519.0626220703125 419.0703430175781 509.0222778320313 433.9320678710938 C 499.0771484375 448.6527709960938 487.6558532714844 462.4955139160156 475.0757141113281 475.0757141113281 C 462.4955139160156 487.6558532714844 448.6527709960938 499.0771484375 433.9320678710938 509.0222778320313 C 419.0703430175781 519.0626220703125 403.1824951171875 527.686279296875 386.7099914550781 534.653564453125 C 369.9330139160156 541.7496337890625 352.376220703125 547.1995849609375 334.5272216796875 550.8519897460938 C 316.2125854492188 554.5997314453125 297.3622741699219 556.5 278.5 556.5 Z" stroke="none"/>
      <path d="M 278.5 1 C 259.6713562011719 1 240.8547973632813 2.8968505859375 222.572998046875 6.63787841796875 C 204.75634765625 10.28363037109375 187.2313537597656 15.72369384765625 170.4847717285156 22.80694580078125 C 154.0419921875 29.76165771484375 138.182861328125 38.36968994140625 123.3477783203125 48.39205932617188 C 108.6535034179688 58.31936645507813 94.8355712890625 69.72021484375 82.27786254882813 82.27786254882813 C 69.72021484375 94.8355712890625 58.31936645507813 108.6535034179688 48.39205932617188 123.3477783203125 C 38.36968994140625 138.182861328125 29.76165771484375 154.0419921875 22.80694580078125 170.4847717285156 C 15.72369384765625 187.2313537597656 10.28363037109375 204.75634765625 6.63787841796875 222.572998046875 C 2.8968505859375 240.8547973632813 1 259.6713562011719 1 278.5 C 1 297.3286437988281 2.8968505859375 316.1452026367188 6.63787841796875 334.427001953125 C 10.28363037109375 352.24365234375 15.72369384765625 369.7686462402344 22.80694580078125 386.5151977539063 C 29.76165771484375 402.9580078125 38.36968994140625 418.817138671875 48.39205932617188 433.6522216796875 C 58.31936645507813 448.3464965820313 69.72021484375 462.1644287109375 82.27786254882813 474.7221374511719 C 94.8355712890625 487.27978515625 108.6535034179688 498.6806335449219 123.3477783203125 508.6079406738281 C 138.182861328125 518.6303100585938 154.0419921875 527.2383422851563 170.4847717285156 534.1930541992188 C 187.2313537597656 541.2763061523438 204.75634765625 546.7163696289063 222.572998046875 550.3621215820313 C 240.8547973632813 554.1031494140625 259.6713562011719 556 278.5 556 C 297.3286437988281 556 316.1452026367188 554.1031494140625 334.427001953125 550.3621215820313 C 352.24365234375 546.7163696289063 369.7686462402344 541.2763061523438 386.5151977539063 534.1930541992188 C 402.9580078125 527.2383422851563 418.817138671875 518.6303100585938 433.6522216796875 508.6079406738281 C 448.3464965820313 498.6806335449219 462.1644287109375 487.27978515625 474.7221374511719 474.7221374511719 C 487.27978515625 462.1644287109375 498.6806335449219 448.3464965820313 508.6079406738281 433.6522216796875 C 518.6303100585938 418.817138671875 527.2383422851563 402.9580078125 534.1930541992188 386.5151977539063 C 541.2763061523438 369.7686462402344 546.7163696289063 352.24365234375 550.3621215820313 334.427001953125 C 554.1031494140625 316.1452026367188 556 297.3286437988281 556 278.5 C 556 259.6713562011719 554.1031494140625 240.8547973632813 550.3621215820313 222.572998046875 C 546.7163696289063 204.75634765625 541.2763061523438 187.2313537597656 534.1930541992188 170.4847717285156 C 527.2383422851563 154.0419921875 518.6303100585938 138.182861328125 508.6079406738281 123.3477783203125 C 498.6806335449219 108.6535034179688 487.27978515625 94.8355712890625 474.7221374511719 82.27786254882813 C 462.1644287109375 69.72021484375 448.3464965820313 58.31936645507813 433.6522216796875 48.39205932617188 C 418.817138671875 38.36968994140625 402.9580078125 29.76165771484375 386.5151977539063 22.80694580078125 C 369.7686462402344 15.72369384765625 352.24365234375 10.28363037109375 334.427001953125 6.63787841796875 C 316.1452026367188 2.8968505859375 297.3286437988281 1 278.5 1 M 278.5 0 C 432.311279296875 0 557 124.688720703125 557 278.5 C 557 432.311279296875 432.311279296875 557 278.5 557 C 124.688720703125 557 0 432.311279296875 0 278.5 C 0 124.688720703125 124.688720703125 0 278.5 0 Z" stroke="none" fill="#ccc"/>
    </g>
  </g>
  <g id="Ellipse_58" data-name="Ellipse 58" transform="translate(98 88)" fill="#fff" stroke="#ccc" stroke-width="1" opacity="0.3">
    <circle cx="190.5" cy="190.5" r="190.5" stroke="none"/>
    <circle cx="190.5" cy="190.5" r="190" fill="none"/>
  </g>
  <g id="Group_4462" data-name="Group 4462" transform="translate(519.539 144.621)">
    <g id="Ellipse_60" data-name="Ellipse 60" transform="translate(10.461 10.379)" fill="none" stroke="#e8e8e8" stroke-width="1">
      <circle cx="13" cy="13" r="13" stroke="none"/>
      <circle cx="13" cy="13" r="12.5" fill="none"/>
    </g>
    <g id="Ellipse_61" data-name="Ellipse 61" transform="translate(0.461 0.379)" fill="none" stroke="#e8e8e8" stroke-width="1">
      <circle cx="23.5" cy="23.5" r="23.5" stroke="none"/>
      <circle cx="23.5" cy="23.5" r="23" fill="none"/>
    </g>
    <circle id="Ellipse_59" data-name="Ellipse 59" cx="5" cy="5" r="5" transform="translate(18.461 18.379)" fill="url(#linear-gradient)"/>
  </g>
  <g id="Group_4463" data-name="Group 4463" transform="translate(0.5 338.23)">
    <g id="Ellipse_60-2" data-name="Ellipse 60" transform="translate(10.5 10.77)" fill="none" stroke="#e8e8e8" stroke-width="1">
      <ellipse cx="13" cy="12.5" rx="13" ry="12.5" stroke="none"/>
      <ellipse cx="13" cy="12.5" rx="12.5" ry="12" fill="none"/>
    </g>
    <g id="Ellipse_61-2" data-name="Ellipse 61" transform="translate(-0.5 -0.23)" fill="none" stroke="#e8e8e8" stroke-width="1">
      <circle cx="23.5" cy="23.5" r="23.5" stroke="none"/>
      <circle cx="23.5" cy="23.5" r="23" fill="none"/>
    </g>
    <ellipse id="Ellipse_59-2" data-name="Ellipse 59" cx="5" cy="5.5" rx="5" ry="5.5" transform="translate(18.5 17.77)" fill="#fb0"/>
  </g>
</svg>
